<?xml version="1.0" encoding="UTF-8"?>
<svg id="Layer_1" data-name="Layer 1" width="600px" height="400px" viewBox="0 0 600 400" version="1.1" xmlns="http://www.w3.org/2000/svg" xmlns:xlink="http://www.w3.org/1999/xlink">
    <title>pointing</title><defs><style>.cls-1{fill:#fff8ec;}.cls-2{fill:#e37027;}.cls-3{fill:#f6fbfc;}.cls-4{fill:#030102;}.cls-5{fill:#f7c2db;}.cls-6{fill:#fff;}.cls-7{fill:#efd725;}.cls-8{fill:#c0d888;}.cls-9{fill:#9ed7ea;}.cls-10{fill:#e1c2de;}.cls-11{fill:#e5e3e2;}.cls-12{fill:#ececec;}.cls-13{fill:none;stroke:#e5e3e2;stroke-linecap:round;stroke-linejoin:round;stroke-width:0;}</style></defs>
        <g id="Page-1" stroke="none" stroke-width="1" fill="none" fill-rule="evenodd">
        <g id="hugo" transform="translate(127.000000, 84.000000)" fill-rule="nonzero">
    <path class="cls-1" d="M613.15,513.41c-.6-.73-1.32-1.61-2.21-2.76-9.12-11.77-21.74-6.51-31.89-2.27-12.83,5.35-19,6.83-24.61-1.53a10.33,10.33,0,0,1-1.76-4.14c5.68-.39,10.22-5.63,12-7.73,3-3.42,5.7-8.46,8.15-15,8.38-7.07,23.46-20.86,13.28-41.22a26.51,26.51,0,0,0-4.93-6.75,34.82,34.82,0,0,0,4.93-8.14l.14-.36.08-.39c.18-.84,1.61-8.39-3.62-14.21-4.3-4.77-16.42-7.21-21.82-8.08-1.78-.58-6.25-2.53-7.66-5.44-.4-.83-.83-2.2.13-4.59,5.31-13.29,3.28-32.29,3.19-33.1l-.75-6.74-6.22,2.71c-.62.27-14.18,6.22-24,13.48-14.06-6.33-22.63-6.14-25.66-5.77-3-.37-11.61-.56-25.67,5.77-9.83-7.26-23.39-13.21-24-13.48L444,351l-.75,6.74c-.09.81-2.13,19.81,3.19,33.1.95,2.39.53,3.76.13,4.59-1.42,2.91-5.9,4.87-7.66,5.44-5.39.87-17.52,3.31-21.82,8.08-5.24,5.82-3.81,13.37-3.63,14.21l.09.39.14.36c.11.3,2.49,6.32,9.48,13.25a117.26,117.26,0,1,0,193.84,88.81C617.05,519.15,616.81,517.88,613.15,513.41ZM499.79,638.19a112.26,112.26,0,0,1-68.89-200.9c-9.62-7.73-12.51-15.22-12.51-15.22s-1.22-5.72,2.46-9.81,19.22-6.55,19.22-6.55,16-4.5,11.05-16.77-2.86-30.68-2.86-30.68,15.95,6.95,25.36,14.72c17.59-8.59,26.32-6.54,26.32-6.54s8.73-2.05,26.32,6.54c9.41-7.77,25.36-14.72,25.36-14.72s2,18.41-2.86,30.68,11,16.77,11,16.77,15.55,2.46,19.23,6.55,2.45,9.81,2.45,9.81-1.79,4.67-7.28,10.43a25.29,25.29,0,0,1,7.48,8.49c8,16-1.9,26.68-13,36-1.75,4.88-4.36,10.85-7.69,14.7-5.77,6.67-9.17,6.93-12.14,4.91,0,.05,0,.11-.08.16l.87.75-1.82,2.41c-.49,3,.19,6.19,2.51,9.68,16,24,42.36-14.43,56.7,4.09,5.07,6.55,5.07,4.92,5.07,12.22A112.26,112.26,0,0,1,499.79,638.19Z" transform="translate(-382.53 -350.96)"/><path class="cls-2" d="M573,524.61l.64-.5-1.64,1,.71-.23Z" transform="translate(-382.53 -350.96)"/><path class="cls-2" d="M596.61,551.79q.52-1.68,1-3.39c-.19.52-.37,1.05-.57,1.57A7.31,7.31,0,0,0,596.61,551.79Z" transform="translate(-382.53 -350.96)"/><path class="cls-2" d="M555.13,536.88c-.21,0-.14,0,0,0Z" transform="translate(-382.53 -350.96)"/><path class="cls-2" d="M569.93,531.71l-.14,0C570.12,531.79,570.12,531.71,569.93,531.71Z" transform="translate(-382.53 -350.96)"/><path class="cls-2" d="M562.67,441.71c-6,3.66-12,7.52-19.25,10.84l-2.08,16.19.13.07-.19.37-.07.61-.18-.09-20.81,42a23.55,23.55,0,0,1,4.27,3.65l20.77-21.59,3.46,3s0-.11.08-.16a11,11,0,0,1-1.06-.81c-3.24-2.81-4.72-5.48,1.74-12.95s21.68-14.09,21.68-14.09-.89,3.64-2.53,8.24c11.15-9.34,21-20,13-36a25.29,25.29,0,0,0-7.48-8.49A56.67,56.67,0,0,1,562.67,441.71Z" transform="translate(-382.53 -350.96)"/><path class="cls-2" d="M550.28,509.62c-2.32-3.49-3-6.67-2.51-9.68l-18.26,24.23c1.94,6.52.56,13.37-4.23,17.72a16,16,0,0,1-12.5,3.9h0a16.19,16.19,0,0,1-3.7-.74l-.61-.2c-.64-.2-1.3-.43-2-.67a12.53,12.53,0,0,1-5.45-3.63,4.93,4.93,0,0,1-.49-.42c-.31-.26-.82-.79-1.38-1.39l-.09-.1,0-.06-.11-.12a20.06,20.06,0,0,1-1.54-1.91l-.64-.95a3.06,3.06,0,0,1-.19-.3,14,14,0,0,1-.86-1.51,1.74,1.74,0,0,1-.1-.19c-.06-.13-.13-.24-.19-.37l-.19-.4a9.39,9.39,0,0,1-.51-1.22c-2.73-7-1.56-14.69,3.65-19.42a15.34,15.34,0,0,1,7.83-3.76l22.28-45-.17-.08.43-.44.18-.37.12.06,6.77-7c-9.26,3.25-20.6,5.5-35.79,5.69-33.14-.41-48-10.64-62.73-19.64a61.23,61.23,0,0,1-6.31-4.42,112.26,112.26,0,1,0,181.15,88.64c0-7.3,0-5.67-5.07-12.22C592.64,495.19,566.25,533.6,550.28,509.62ZM499.8,594.26a13.09,13.09,0,1,1-13.09,13.09A13.09,13.09,0,0,1,499.8,594.26ZM410.62,540a13,13,0,1,1,13,13A13,13,0,0,1,410.62,540ZM448,578.35a11.46,11.46,0,1,1-11.45,11.45A11.46,11.46,0,0,1,448,578.35Zm-8.65-86.78A10.58,10.58,0,1,1,428.78,481,10.58,10.58,0,0,1,439.36,491.57ZM503.4,633s26.81,2.07,56.7-24.63a6.48,6.48,0,0,1,.3-1,9.9,9.9,0,0,0,.33-1.62c.06-.31.18-.6.22-.91s0-.66.08-1,.24-.68.3-1,.06-.5.09-.75a18.32,18.32,0,0,1-2.31-.32c-1.71-.37-2.12-2.3-1.49-3.68a3,3,0,0,1,.57-.77c.09-.45.22-.89.27-1.35a1.27,1.27,0,0,1,.56-1.07,1.51,1.51,0,0,1,.18-.26,6.17,6.17,0,0,1-1.87-.13.59.59,0,0,1-.43-.43,2.64,2.64,0,0,1,1-2.55s0,0,0,0a6.11,6.11,0,0,1,.77-2.1c.11-.19.21-.39.31-.58l0-.32-.23,0a7.54,7.54,0,0,1-2.88,0,2.85,2.85,0,0,1-2-2,3.13,3.13,0,0,1,.17-2v0l0,.11a1,1,0,0,0,.06-.22,4.11,4.11,0,0,1,.12-.61,3.74,3.74,0,0,1,.25-.66.94.94,0,0,0,0-.16l0-.21c-.2.08-.39.17-.59.24a19.2,19.2,0,0,0-2.46,1.29,3.51,3.51,0,0,1-2.49.57.64.64,0,0,1-.46-.61c0-.72.56-1,.85-1.62a7.37,7.37,0,0,1,1.15-1.57c.46-.51.87-1.11,1.28-1.67s.57-1.18,1-1.7h0c-1.61,0-3.24-.16-4.8-.24-2.52-.13-5.5.1-7.89-.77a3.18,3.18,0,0,1-2-3.76,9.9,9.9,0,0,1,1.28-2.56,48.39,48.39,0,0,1,5.11-6.43c.87-1,1.79-2,2.67-3l.65-.86c0-.13,0-.34-.06-.66a3.66,3.66,0,0,1,.35-1.84,1,1,0,0,1-.61-1.14c.13-.56.74-1,1.08-1.47a14.75,14.75,0,0,1,1.85-1.94c.38-.36.77-.71,1.12-1.08s.91-.88.25-1.08a3.68,3.68,0,0,0-2.39.41,5.11,5.11,0,0,1-4.29-.21.62.62,0,0,1-.31-.54,4.54,4.54,0,0,1,1.42-2.47,18.66,18.66,0,0,1,3.07-2.05,6.82,6.82,0,0,0,2.42-3.59,1.3,1.3,0,0,0,0-.73l-.84-.15-.23,0a2,2,0,0,1-1-.18,6.52,6.52,0,0,1-2.15-.27,2.54,2.54,0,0,1-.59-4.57,11,11,0,0,1,1.57-.8h-.05a2.38,2.38,0,0,1-1.8-2.16c-3.43.41-5.8.53-5.8.53,11.95-2.83,21.25-5.58,30.15-11,8.24-5,12.76-8.63,24.49-10.21a7.45,7.45,0,0,1,5.76,1.67,7.55,7.55,0,0,1,2.69,5.45c2,44.28-29.66,78.85-39.4,88.39-17,16.64-35,25-53.65,25A62.62,62.62,0,0,1,503.4,633Z" transform="translate(-382.53 -350.96)"/><path class="cls-2" d="M437.21,441.71c14.73,9,29.59,19.23,62.73,19.64,15.19-.19,26.53-2.44,35.79-5.69l3.2-3.3A136.54,136.54,0,0,1,501,460.15v.11l-.85-.06-.84.06v-.11c-42.95-2.65-68.24-23.89-68.24-23.89l4.1-10.64s4.63-7.36,11.72-7.09,11.46-7.5,11.46-7.5,4.91-8.32,6.82-10.23,7.09-4.09,15.81,2.73c7,5.46,15.6,14.74,18.76,18.23h.82c3.16-3.49,11.77-12.78,18.77-18.24,8.72-6.82,13.9-4.64,15.81-2.73S542,411,542,411s4.36,7.77,11.46,7.5,11.72,7.09,11.72,7.09l4.09,10.64s-9,7.52-25.27,14.17l-.36.74-.18,1.38c7.25-3.32,13.26-7.18,19.25-10.84a56.67,56.67,0,0,0,11.53-9.21c5.49-5.76,7.28-10.43,7.28-10.43s1.23-5.72-2.45-9.81-19.23-6.55-19.23-6.55-15.95-4.5-11-16.77,2.86-30.68,2.86-30.68-16,6.95-25.36,14.72c-17.59-8.59-26.32-6.54-26.32-6.54s-8.73-2.05-26.32,6.54c-9.41-7.77-25.36-14.72-25.36-14.72s-2.05,18.41,2.86,30.68-11.05,16.77-11.05,16.77-15.54,2.46-19.22,6.55-2.46,9.81-2.46,9.81,2.89,7.49,12.51,15.22A61.23,61.23,0,0,0,437.21,441.71ZM545.33,364s4.78-3.54,4.78,2.73.81,10.77-1.09,16.91-6.55,0-6.55,0-.14-3-2.18-4.36-5.18-1.23-6.68-1.23-3.55-1.27-2.18-3.36S541.38,365.76,545.33,364Zm-93.39,19.64c-1.91-6.14-1.09-10.64-1.09-16.91s4.77-2.73,4.77-2.73c3.95,1.78,12.55,8.59,13.91,10.69s-.68,3.36-2.18,3.36-4.64-.14-6.68,1.23-2.19,4.36-2.19,4.36S453.85,389.76,451.94,383.62Z" transform="translate(-382.53 -350.96)"/><path class="cls-3" d="M458.48,383.62s.14-3,2.19-4.36,5.18-1.23,6.68-1.23,3.54-1.27,2.18-3.36-10-8.91-13.91-10.69c0,0-4.77-3.54-4.77,2.73s-.82,10.77,1.09,16.91S458.48,383.62,458.48,383.62Z" transform="translate(-382.53 -350.96)"/><path class="cls-3" d="M533.61,378c1.5,0,4.63-.14,6.68,1.23s2.18,4.36,2.18,4.36,4.64,6.14,6.55,0,1.09-10.64,1.09-16.91-4.78-2.73-4.78-2.73c-4,1.78-12.54,8.59-13.9,10.69S532.11,378,533.61,378Z" transform="translate(-382.53 -350.96)"/><path class="cls-3" d="M545.21,442l.69.35h0l.9.44h0l.76.38-3.6,7.26c16.31-6.65,25.27-14.17,25.27-14.17l-4.09-10.64s-4.63-7.36-11.72-7.09S542,411,542,411s-4.91-8.32-6.82-10.23-7.09-4.09-15.81,2.73c-7,5.46-15.61,14.75-18.77,18.24,2.94.15,5.25,1.49,5.25,3.12s-2,2.8-4.69,3.08c-.11,1.61-.46,7.3.08,9.48a3.15,3.15,0,0,0,3.36,1.94,8.83,8.83,0,0,0,3.55-1.36,3.6,3.6,0,0,1-2.3,2.59c-1.45.63-4,.43-4.86-.41a8.72,8.72,0,0,1-.95-1.36,8.72,8.72,0,0,1-.95,1.36c-.9.84-3.41,1-4.86.41a3.6,3.6,0,0,1-2.3-2.59,8.83,8.83,0,0,0,3.55,1.36,3.15,3.15,0,0,0,3.36-1.94c.54-2.18.19-7.87.08-9.48-2.67-.28-4.69-1.55-4.69-3.08s2.47-3.05,5.55-3.13C496.58,418.27,488,409,481,403.53c-8.72-6.82-13.91-4.64-15.81-2.73S458.35,411,458.35,411s-4.37,7.77-11.46,7.5-11.72,7.09-11.72,7.09l-4.1,10.64s25.29,21.24,68.24,23.89v.11l.84-.06.85.06v-.11a136.54,136.54,0,0,0,37.93-7.79l2.35-2.41Zm-72-29.2a5.56,5.56,0,1,1-5.56,5.56A5.55,5.55,0,0,1,473.18,412.8Zm.78,23.73c-4.4,0-8-1.16-8-2.58s3.58-2.58,8-2.58,8,1.16,8,2.58S478.37,436.53,474,436.53Zm52.22-23.73a5.56,5.56,0,1,1-5.56,5.56A5.55,5.55,0,0,1,526.18,412.8ZM526,436.53c-4.4,0-8-1.16-8-2.58s3.58-2.58,8-2.58,8,1.16,8,2.58S530.37,436.53,526,436.53Z" transform="translate(-382.53 -350.96)"/><path class="cls-4" d="M494.19,424.89c0,1.53,2,2.8,4.69,3.08.11,1.61.46,7.3-.08,9.48a3.15,3.15,0,0,1-3.36,1.94,8.83,8.83,0,0,1-3.55-1.36,3.6,3.6,0,0,0,2.3,2.59c1.45.63,4,.43,4.86-.41a8.72,8.72,0,0,0,.95-1.36,8.72,8.72,0,0,0,.95,1.36c.9.84,3.41,1,4.86.41a3.6,3.6,0,0,0,2.3-2.59,8.83,8.83,0,0,1-3.55,1.36,3.15,3.15,0,0,1-3.36-1.94c-.54-2.18-.19-7.87-.08-9.48,2.67-.28,4.69-1.55,4.69-3.08s-2.31-3-5.25-3.12h-.82C496.66,421.84,494.19,423.21,494.19,424.89Zm9.38-1c0,.45-.79.82-1.77.82s-1.77-.37-1.77-.82.79-.82,1.77-.82S503.57,423.4,503.57,423.85Z" transform="translate(-382.53 -350.96)"/><ellipse class="cls-5" cx="91.43" cy="82.99" rx="7.98" ry="2.58"/><ellipse class="cls-5" cx="143.43" cy="82.99" rx="7.98" ry="2.58"/><path class="cls-4" d="M467.62,418.36a5.56,5.56,0,1,0,5.56-5.56A5.56,5.56,0,0,0,467.62,418.36Zm8.16-2.88a2.94,2.94,0,1,1-2.93,2.94A2.94,2.94,0,0,1,475.78,415.48Z" transform="translate(-382.53 -350.96)"/><circle class="cls-6" cx="93.25" cy="67.45" r="2.93"/><path class="cls-4" d="M526.18,423.92a5.56,5.56,0,1,0-5.56-5.56A5.55,5.55,0,0,0,526.18,423.92Zm5.53-5.5a2.93,2.93,0,1,1-2.93-2.94A2.93,2.93,0,0,1,531.71,418.42Z" transform="translate(-382.53 -350.96)"/><circle class="cls-6" cx="146.25" cy="67.45" r="2.93"/><path class="cls-6" d="M500,423.85c0,.45.79.82,1.77.82s1.77-.37,1.77-.82-.79-.82-1.77-.82S500,423.4,500,423.85Z" transform="translate(-382.53 -350.96)"/><path class="cls-3" d="M499,538.65l.09.1-.14-.16Z" transform="translate(-382.53 -350.96)"/><path class="cls-3" d="M509.06,545.06l-.61-.2Z" transform="translate(-382.53 -350.96)"/><path class="cls-3" d="M512.78,545.79a16,16,0,0,0,12.5-3.9c4.79-4.35,6.17-11.2,4.23-17.72L517,540.82Z" transform="translate(-382.53 -350.96)"/><path class="cls-3" d="M524.49,515.37a23.55,23.55,0,0,0-4.27-3.65L512,528.39Z" transform="translate(-382.53 -350.96)"/><path class="cls-3" d="M495.63,533.8a1.74,1.74,0,0,1-.1-.19A1.74,1.74,0,0,0,495.63,533.8Z" transform="translate(-382.53 -350.96)"/><path class="cls-3" d="M506.12,508.44a15.34,15.34,0,0,0-7.83,3.76c-5.21,4.73-6.38,12.42-3.65,19.42h0Z" transform="translate(-382.53 -350.96)"/><circle class="cls-7" cx="428.78" cy="491.57" r="10.58" transform="translate(-604.53 96.21) rotate(-45)"/><circle class="cls-8" cx="41.06" cy="189.05" r="12.97"/><circle class="cls-9" cx="65.48" cy="238.84" r="11.45"/><circle class="cls-10" cx="117.27" cy="256.38" r="13.09"/><path class="cls-11" d="M596.61,551.79A7.31,7.31,0,0,1,597,550c.2-.52.38-1.05.57-1.57a91.77,91.77,0,0,0,3.33-28.24,4.56,4.56,0,0,0-1.63-3.28c-1-.81-3.63-.94-4.88-.78-8.41,1.14-14.59,4.32-20.74,8l-.64.5-.29.27-.71.23-4.3,2.65c-5.74,3.49-15.08,5.12-21.11,5.84a2.38,2.38,0,0,0,1.8,2.16h.05a11,11,0,0,0-1.57.8,2.54,2.54,0,0,0,.59,4.57,6.52,6.52,0,0,0,2.15.27,2,2,0,0,0,1,.18l.23,0,.84.15a1.3,1.3,0,0,1,0,.73,6.82,6.82,0,0,1-2.42,3.59,18.66,18.66,0,0,0-3.07,2.05,4.54,4.54,0,0,0-1.42,2.47.62.62,0,0,0,.31.54,5.11,5.11,0,0,0,4.29.21,3.68,3.68,0,0,1,2.39-.41c.66.2.05.76-.25,1.08s-.74.72-1.12,1.08a14.75,14.75,0,0,0-1.85,1.94c-.34.44-.95.91-1.08,1.47a1,1,0,0,0,.61,1.14,3.66,3.66,0,0,0-.35,1.84c0,.32,0,.53.06.66l-.65.86c-.88,1-1.8,2-2.67,3a48.39,48.39,0,0,0-5.11,6.43,9.9,9.9,0,0,0-1.28,2.56,3.18,3.18,0,0,0,2,3.76c2.39.87,5.37.64,7.89.77,1.56.08,3.19.2,4.8.24h0c-.44.52-.62,1.16-1,1.7s-.82,1.16-1.28,1.67a7.37,7.37,0,0,0-1.15,1.57c-.29.6-.82.9-.85,1.62a.64.64,0,0,0,.46.61,3.51,3.51,0,0,0,2.49-.57,19.2,19.2,0,0,1,2.46-1.29c.2-.07.39-.16.59-.24l0,.21a.94.94,0,0,1,0,.16,3.74,3.74,0,0,0-.25.66,4.11,4.11,0,0,0-.12.61,1,1,0,0,1-.06.22l0-.11v0a3.13,3.13,0,0,0-.17,2,2.85,2.85,0,0,0,2,2,7.54,7.54,0,0,0,2.88,0l.23,0,0,.32c-.1.19-.2.39-.31.58a6.11,6.11,0,0,0-.77,2.1s0,0,0,0a2.64,2.64,0,0,0-1,2.55.59.59,0,0,0,.43.43,6.17,6.17,0,0,0,1.87.13,1.51,1.51,0,0,0-.18.26,1.27,1.27,0,0,0-.56,1.07c-.05.46-.18.9-.27,1.35a3,3,0,0,0-.57.77c-.63,1.38-.22,3.31,1.49,3.68a18.32,18.32,0,0,0,2.31.32c0,.25,0,.51-.09.75s-.21.69-.3,1,0,.66-.08,1-.16.6-.22.91a9.9,9.9,0,0,1-.33,1.62,6.48,6.48,0,0,0-.3,1c.77-.69,1.54-1.39,2.32-2.11C576.12,593.41,589.82,573.83,596.61,551.79Zm-23.69,34c.22,0,.2.06,0,0Zm-.59-4c.28-.2.28-.11,0,0Zm-2.4-50.09c.19,0,.19.08-.14,0Zm-19.23,4.66c.4.1.27.24,0,0ZM543,574a.24.24,0,0,0,0-.08A.24.24,0,0,1,543,574Zm5-14.13,0,0ZM554,584.52v0l.19-.45C554.14,584.2,554.08,584.36,554,584.52Zm1.11-47.64c-.14,0-.21,0,0,0Zm.14,4.12c-.09-.3.08-.15,0,0Z" transform="translate(-382.53 -350.96)"/><polygon class="cls-9" points="157.6 118.3 154.88 116.95 119.72 187.96 124.67 182.38 127.14 179.82 157.6 118.3"/><path class="cls-9" d="M531.62,465.05l-2.33-1.15-34.14,68.94.19.4c.06.13.13.24.19.37a1.74,1.74,0,0,0,.1.19,14,14,0,0,0,.86,1.51,3.06,3.06,0,0,0,.19.3Z" transform="translate(-382.53 -350.96)"/><path class="cls-9" d="M536.51,467.47l-4-2-35.19,71.07a20.06,20.06,0,0,0,1.54,1.91l.11.12.14.16c.56.6,1.07,1.13,1.38,1.39Z" transform="translate(-382.53 -350.96)"/><polygon class="cls-12" points="157.86 117.31 159.94 101.15 158.66 100.51 147.38 112.12 149.53 113.19 155.32 116.06 157.86 117.31"/><path d="M500.89,540.46l1.36-1.54,35.16-71,2.72,1.35-30.46,61.52,2.3-2.39,8.25-16.67,20.81-42,.18.09.07-.61.19-.37-.13-.07,2.08-16.19.18-1.38.36-.74,3.6-7.26-.76-.38h0l-.9-.44h0l-.69-.35L541.28,450l-2.35,2.41-3.2,3.3-6.77,7-.12-.06-.18.37-.43.44.17.08-22.28,45-11.48,23.17h0a9.39,9.39,0,0,0,.51,1.22l34.14-68.94,2.33,1.15-34.94,70.56.64.95,35.19-71.07,4,2-36,72.67a4.93,4.93,0,0,0,.49.42Zm31.17-76.31-2.15-1.07,11.28-11.61,1.28.64-2.08,16.17L537.85,467Z" transform="translate(-382.53 -350.96)"/><path d="M549.48,482.86c-6.46,7.47-5,10.14-1.74,12.95a11,11,0,0,0,1.06.81c3,2,6.37,1.76,12.14-4.91,3.33-3.85,5.94-9.82,7.69-14.7,1.64-4.6,2.53-8.24,2.53-8.24S556,475.4,549.48,482.86Zm17.79-9.45s-1,8.08-6.25,13.75S567.27,473.41,567.27,473.41Z" transform="translate(-382.53 -350.96)"/><polygon class="cls-12" points="141.96 164.41 129.44 177.43 127.14 179.82 124.67 182.38 134.44 189.86 146.98 173.21 165.24 148.98 167.06 146.56 166.19 145.82 162.73 142.82 141.96 164.41"/><path d="M507.2,533.34l-4.95,5.58-1.36,1.54.09.1a12.53,12.53,0,0,0,5.45,3.63c.72.24,1.38.47,2,.67l.61.2a16.19,16.19,0,0,0,3.7.74h0l4.18-5Z" transform="translate(-382.53 -350.96)"/><path class="cls-6" d="M567.27,473.41S555.8,492.84,561,487.16,567.27,473.41,567.27,473.41Z" transform="translate(-382.53 -350.96)"/><path d="M564.52,608.42c9.74-9.54,41.38-44.11,39.4-88.39a7.55,7.55,0,0,0-2.69-5.45,7.45,7.45,0,0,0-5.76-1.67c-11.73,1.58-16.25,5.19-24.49,10.21-8.9,5.43-18.2,8.18-30.15,11,0,0,2.37-.12,5.8-.53,6-.72,15.37-2.35,21.11-5.84l4.3-2.65,1.64-1c6.15-3.69,12.33-6.87,20.74-8,1.25-.16,3.91,0,4.88.78a4.56,4.56,0,0,1,1.63,3.28,91.77,91.77,0,0,1-3.33,28.24q-.47,1.71-1,3.39c-6.79,22-20.49,41.62-34.19,54.49-.78.72-1.55,1.42-2.32,2.11C530.21,635.09,503.4,633,503.4,633a62.62,62.62,0,0,0,7.47.44C529.5,633.46,547.52,625.06,564.52,608.42Z" transform="translate(-382.53 -350.96)"/><path class="cls-11" d="M555.27,541c.08-.15-.09-.3,0,0Z" transform="translate(-382.53 -350.96)"/><path class="cls-11" d="M550.7,536.37c.27.24.4.1,0,0Z" transform="translate(-382.53 -350.96)"/><path class="cls-13" d="M548,559.88l0,0" transform="translate(-382.53 -350.96)"/><path class="cls-13" d="M543,574a.24.24,0,0,0,0-.08" transform="translate(-382.53 -350.96)"/><path class="cls-11" d="M572.33,581.8c.28-.11.28-.2,0,0Z" transform="translate(-382.53 -350.96)"/><path class="cls-11" d="M554,584.52c.06-.16.12-.32.2-.49l-.19.45Z" transform="translate(-382.53 -350.96)"/><path class="cls-11" d="M572.92,585.75c.2.06.22,0,0,0Z" transform="translate(-382.53 -350.96)"/>
           </g>
    </g>
    </svg>
