<?xml version="1.0" encoding="UTF-8"?>
<svg xmlns="http://www.w3.org/2000/svg" xml:space="preserve" width="100.459mm" height="17.6166mm" version="1.1" style="shape-rendering:geometricPrecision; text-rendering:geometricPrecision; image-rendering:optimizeQuality; fill-rule:evenodd; clip-rule:evenodd"
viewBox="0 0 8653.54 1517.5"
 xmlns:xlink="http://www.w3.org/1999/xlink"
 xmlns:xodm="http://www.corel.com/coreldraw/odm/2003">
 <defs>
  <style type="text/css">
   <![CDATA[
    .str0 {stroke:#FFED00;stroke-width:3.04;stroke-miterlimit:22.9256}
    .fil1 {fill:none;fill-rule:nonzero}
    .fil0 {fill:#E37027;fill-rule:nonzero}
   ]]>
  </style>
 </defs>
 <g id="Layer0020_1">
  <metadata id="CorelCorpID_0Corel-Layer"/>
  <path class="fil0" d="M1.52 22.85l895.88 0c149.32,0 257.74,33.78 325.29,101.32 67.54,67.54 101.32,175.98 101.32,325.29l0 213.3c0,149.31 -33.78,257.74 -101.32,325.28 -67.55,67.55 -175.98,101.32 -325.29,101.32l-511.92 0 0 426.61 -383.95 0 0 -1493.12zm938.53 426.61c0,-85.32 -42.66,-127.99 -127.98,-127.99l-426.6 0 0 469.27 426.6 0c85.32,0 127.98,-42.66 127.98,-127.98l0 -213.3z"/>
  <path id="_1" class="fil0" d="M1899.93 534.78l490.59 0c149.31,0 257.74,33.78 325.28,101.33 67.55,67.54 101.32,175.97 101.32,325.28l0 127.98c0,149.32 -33.77,257.75 -101.32,325.29 -67.54,67.54 -175.98,101.32 -325.28,101.32l-874.55 0 0 -1493.12 383.95 0 0 511.92zm1471.78 981.2l-383.94 0 0 -1493.12 383.94 0 0 1493.12zm-938.53 -554.59c0,-85.32 -42.66,-127.98 -127.98,-127.98l-405.27 0 0 383.94 405.27 0c85.32,0 127.98,-42.67 127.98,-127.99l0 -127.98z"/>
  <path id="_2" class="fil0" d="M5430.09 1.52c35.55,0 99.54,7.11 191.97,21.33l0 287.96 -85.32 0c-21.33,0 -40.53,6.75 -57.59,20.26 -17.06,13.52 -29.86,28.09 -38.39,43.73l-202.64 383.94 415.94 757.22 -405.27 0 -330.62 -607.92 -149.31 0 0 607.92 -383.94 0 0 -607.92 -149.32 0 -330.62 607.92 -405.27 0 415.94 -757.22 -202.64 -383.94c-8.53,-15.64 -21.33,-30.22 -38.39,-43.73 -17.06,-13.51 -36.27,-20.26 -57.59,-20.26l-85.32 0 0 -287.96c92.44,-14.22 156.42,-21.33 191.97,-21.33 75.37,0 136.16,18.84 182.38,56.53 46.21,37.68 84.97,86.38 116.25,146.11l213.3 405.27 149.32 0 0 -586.58 383.94 0 0 586.58 149.31 0 213.31 -405.27c31.28,-59.73 70.03,-108.43 116.25,-146.11 46.21,-37.69 107,-56.53 182.38,-56.53z"/>
  <polygon id="_3" class="fil0" points="7083.18,1515.97 6699.24,1515.97 6699.24,598.77 6187.31,1515.97 5782.03,1515.97 5782.03,22.85 6165.99,22.85 6165.99,940.06 6677.91,22.85 7083.18,22.85 "/>
  <path id="_4" class="fil0" d="M8427 1.52c35.55,0 99.54,7.11 191.97,21.33l0 287.96 -85.32 0c-21.33,0 -40.53,6.75 -57.59,20.26 -17.06,13.52 -29.86,28.09 -38.39,43.73l-202.64 383.94 415.95 757.22 -405.28 0 -330.61 -607.92 -191.97 0 0 607.92 -383.95 0 0 -1493.12 383.95 0 0 586.58 191.97 0 213.3 -405.27c31.29,-59.73 70.03,-108.43 116.25,-146.11 46.22,-37.69 107.01,-56.53 182.38,-56.53z"/>
  <path id="_5" class="fil1 str0" d="M1.52 22.85l895.88 0c149.32,0 257.74,33.78 325.29,101.32 67.54,67.54 101.32,175.98 101.32,325.29l0 213.3c0,149.31 -33.78,257.74 -101.32,325.28 -67.55,67.55 -175.98,101.32 -325.29,101.32l-511.92 0 0 426.61 -383.95 0 0 -1493.12zm938.53 426.61c0,-85.32 -42.66,-127.99 -127.98,-127.99l-426.6 0 0 469.27 426.6 0c85.32,0 127.98,-42.66 127.98,-127.98l0 -213.3z"/>
  <path id="_6" class="fil1 str0" d="M1899.93 534.78l490.59 0c149.31,0 257.74,33.78 325.28,101.33 67.55,67.54 101.32,175.97 101.32,325.28l0 127.98c0,149.32 -33.77,257.75 -101.32,325.29 -67.54,67.54 -175.98,101.32 -325.28,101.32l-874.55 0 0 -1493.12 383.95 0 0 511.92zm1471.78 981.2l-383.94 0 0 -1493.12 383.94 0 0 1493.12zm-938.53 -554.59c0,-85.32 -42.66,-127.98 -127.98,-127.98l-405.27 0 0 383.94 405.27 0c85.32,0 127.98,-42.67 127.98,-127.99l0 -127.98z"/>
  <path id="_7" class="fil1 str0" d="M5430.09 1.52c35.55,0 99.54,7.11 191.97,21.33l0 287.96 -85.32 0c-21.33,0 -40.53,6.75 -57.59,20.26 -17.06,13.52 -29.86,28.09 -38.39,43.73l-202.64 383.94 415.94 757.22 -405.27 0 -330.62 -607.92 -149.31 0 0 607.92 -383.94 0 0 -607.92 -149.32 0 -330.62 607.92 -405.27 0 415.94 -757.22 -202.64 -383.94c-8.53,-15.64 -21.33,-30.22 -38.39,-43.73 -17.06,-13.51 -36.27,-20.26 -57.59,-20.26l-85.32 0 0 -287.96c92.44,-14.22 156.42,-21.33 191.97,-21.33 75.37,0 136.16,18.84 182.38,56.53 46.21,37.68 84.97,86.38 116.25,146.11l213.3 405.27 149.32 0 0 -586.58 383.94 0 0 586.58 149.31 0 213.31 -405.27c31.28,-59.73 70.03,-108.43 116.25,-146.11 46.21,-37.69 107,-56.53 182.38,-56.53z"/>
  <polygon id="_8" class="fil1 str0" points="7083.18,1515.97 6699.24,1515.97 6699.24,598.77 6187.31,1515.97 5782.03,1515.97 5782.03,22.85 6165.99,22.85 6165.99,940.06 6677.91,22.85 7083.18,22.85 "/>
  <path id="_9" class="fil1 str0" d="M8427 1.52c35.55,0 99.54,7.11 191.97,21.33l0 287.96 -85.32 0c-21.33,0 -40.53,6.75 -57.59,20.26 -17.06,13.52 -29.86,28.09 -38.39,43.73l-202.64 383.94 415.95 757.22 -405.28 0 -330.61 -607.92 -191.97 0 0 607.92 -383.95 0 0 -1493.12 383.95 0 0 586.58 191.97 0 213.3 -405.27c31.29,-59.73 70.03,-108.43 116.25,-146.11 46.22,-37.69 107.01,-56.53 182.38,-56.53z"/>
 </g>
</svg>