<?xml version="1.0" encoding="UTF-8"?>
<!DOCTYPE svg PUBLIC "-//W3C//DTD SVG 1.1//EN" "http://www.w3.org/Graphics/SVG/1.1/DTD/svg11.dtd">
<!-- Creator: CorelDRAW -->
<svg xmlns="http://www.w3.org/2000/svg" xml:space="preserve" width="54px" height="54px" viewBox="0 0 54 54" version="1.1" style="shape-rendering:geometricPrecision; text-rendering:geometricPrecision; image-rendering:optimizeQuality; fill-rule:evenodd; clip-rule:evenodd"

 xmlns:xlink="http://www.w3.org/1999/xlink"
 xmlns:xodm="http://www.corel.com/coreldraw/odm/2003">
 <defs>
  <style type="text/css">
   <![CDATA[
    .str0 {stroke:#FFED00;stroke-width:0.43;stroke-miterlimit:22.9256}
    .fil1 {fill:none;fill-rule:nonzero}
    .fil0 {fill:#E37027;fill-rule:nonzero}
   ]]>
  </style>
 </defs>
 <g id="0020_1">
  <metadata id="CorelCorpID_0Corel-Layer"/>
  <path class="fil0" d="M0.22 3.24l126.85 0c21.15,0 36.5,4.78 46.06,14.35 9.57,9.56 14.35,24.92 14.35,46.06l0 30.2c0,21.14 -4.78,36.5 -14.35,46.06 -9.56,9.57 -24.91,14.35 -46.06,14.35l-72.49 0 0 60.41 -54.36 0 0 -211.43zm132.89 60.41c0,-12.08 -6.04,-18.12 -18.12,-18.12l-60.41 0 0 66.44 60.41 0c12.08,0 18.12,-6.04 18.12,-18.12l0 -30.2z"/>
  <path id="_1" class="fil0" d="M269.03 75.73l69.47 0c21.14,0 36.5,4.78 46.06,14.35 9.56,9.56 14.35,24.91 14.35,46.06l0 18.12c0,21.14 -4.79,36.5 -14.35,46.06 -9.56,9.56 -24.92,14.35 -46.06,14.35l-123.84 0 0 -211.43 54.37 0 0 72.49 0 0zm208.41 138.94l-54.37 0 0 -211.43 54.37 0 0 211.43zm-132.9 -78.53c0,-12.08 -6.04,-18.12 -18.12,-18.12l-57.39 0 0 54.36 57.39 0c12.08,0 18.12,-6.04 18.12,-18.12l0 -18.12 0 0z"/>
  <path id="_2" class="fil0" d="M768.9 0.22c5.04,0 14.1,1.01 27.19,3.02l0 40.77 -12.08 0c-3.02,0 -5.74,0.96 -8.16,2.87 -2.41,1.92 -4.23,3.98 -5.44,6.2l-28.69 54.36 58.9 107.22 -57.39 0 -46.82 -86.08 -21.14 0 0 86.08 -54.36 0 0 -86.08 -21.15 0 -46.81 86.08 -57.39 0 58.9 -107.22 -28.7 -54.36c-1.21,-2.22 -3.02,-4.28 -5.43,-6.2 -2.42,-1.91 -5.14,-2.87 -8.16,-2.87l-12.08 0 0 -40.77c13.09,-2.01 22.15,-3.02 27.18,-3.02 10.68,0 19.28,2.67 25.83,8 6.54,5.34 12.03,12.24 16.46,20.69l30.2 57.39 21.15 0 0 -83.06 54.36 0 0 83.06 21.14 0 30.21 -57.39c4.43,-8.45 9.91,-15.35 16.46,-20.69 6.54,-5.33 15.15,-8 25.82,-8l0 0z"/>
  <polygon id="_3" class="fil0" points="1002.98,214.67 948.62,214.67 948.62,84.79 876.13,214.67 818.74,214.67 818.74,3.24 873.11,3.24 873.11,133.12 945.6,3.24 1002.98,3.24 "/>
  <path id="_4" class="fil0" d="M1193.27 0.22c5.03,0 14.09,1.01 27.18,3.02l0 40.77 -12.08 0c-3.02,0 -5.74,0.96 -8.16,2.87 -2.41,1.92 -4.22,3.98 -5.43,6.2l-28.7 54.36 58.9 107.22 -57.39 0 -46.81 -86.08 -27.18 0 0 86.08 -54.37 0 0 -211.42 54.37 0 0 83.06 27.18 0 30.2 -57.39c4.43,-8.46 9.92,-15.35 16.46,-20.69 6.55,-5.34 15.16,-8 25.83,-8l0 0z"/>
  <path id="_5" class="fil1 str0" d="M0.22 3.24l126.85 0c21.15,0 36.5,4.78 46.06,14.35 9.57,9.56 14.35,24.92 14.35,46.06l0 30.2c0,21.14 -4.78,36.5 -14.35,46.06 -9.56,9.57 -24.91,14.35 -46.06,14.35l-72.49 0 0 60.41 -54.36 0 0 -211.43zm132.89 60.41c0,-12.08 -6.04,-18.12 -18.12,-18.12l-60.41 0 0 66.44 60.41 0c12.08,0 18.12,-6.04 18.12,-18.12l0 -30.2z"/>
  <path id="_6" class="fil1 str0" d="M269.03 75.73l69.47 0c21.14,0 36.5,4.78 46.06,14.35 9.56,9.56 14.35,24.91 14.35,46.06l0 18.12c0,21.14 -4.79,36.5 -14.35,46.06 -9.56,9.56 -24.92,14.35 -46.06,14.35l-123.84 0 0 -211.43 54.37 0 0 72.49 0 0zm208.41 138.94l-54.37 0 0 -211.43 54.37 0 0 211.43zm-132.9 -78.53c0,-12.08 -6.04,-18.12 -18.12,-18.12l-57.39 0 0 54.36 57.39 0c12.08,0 18.12,-6.04 18.12,-18.12l0 -18.12 0 0z"/>
  <path id="_7" class="fil1 str0" d="M768.9 0.22c5.04,0 14.1,1.01 27.19,3.02l0 40.77 -12.08 0c-3.02,0 -5.74,0.96 -8.16,2.87 -2.41,1.92 -4.23,3.98 -5.44,6.2l-28.69 54.36 58.9 107.22 -57.39 0 -46.82 -86.08 -21.14 0 0 86.08 -54.36 0 0 -86.08 -21.15 0 -46.81 86.08 -57.39 0 58.9 -107.22 -28.7 -54.36c-1.21,-2.22 -3.02,-4.28 -5.43,-6.2 -2.42,-1.91 -5.14,-2.87 -8.16,-2.87l-12.08 0 0 -40.77c13.09,-2.01 22.15,-3.02 27.18,-3.02 10.68,0 19.28,2.67 25.83,8 6.54,5.34 12.03,12.24 16.46,20.69l30.2 57.39 21.15 0 0 -83.06 54.36 0 0 83.06 21.14 0 30.21 -57.39c4.43,-8.45 9.91,-15.35 16.46,-20.69 6.54,-5.33 15.15,-8 25.82,-8l0 0z"/>
  <polygon id="_8" class="fil1 str0" points="1002.98,214.67 948.62,214.67 948.62,84.79 876.13,214.67 818.74,214.67 818.74,3.24 873.11,3.24 873.11,133.12 945.6,3.24 1002.98,3.24 "/>
  <path id="_9" class="fil1 str0" d="M1193.27 0.22c5.03,0 14.09,1.01 27.18,3.02l0 40.77 -12.08 0c-3.02,0 -5.74,0.96 -8.16,2.87 -2.41,1.92 -4.22,3.98 -5.43,6.2l-28.7 54.36 58.9 107.22 -57.39 0 -46.81 -86.08 -27.18 0 0 86.08 -54.37 0 0 -211.42 54.37 0 0 83.06 27.18 0 30.2 -57.39c4.43,-8.46 9.92,-15.35 16.46,-20.69 6.55,-5.34 15.16,-8 25.83,-8l0 0z"/>
 </g>
</svg>
